<?xml version="1.0" encoding="UTF-8" standalone="no"?>
<!-- Created with Inkscape (http://www.inkscape.org/) -->

<svg
   width="210mm"
   height="297mm"
   viewBox="0 0 210 297"
   version="1.1"
   id="svg5"
   xml:space="preserve"
   sodipodi:docname="s-pertusa.svg"
   inkscape:version="1.2.1 (9c6d41e410, 2022-07-14)"
   xmlns:inkscape="http://www.inkscape.org/namespaces/inkscape"
   xmlns:sodipodi="http://sodipodi.sourceforge.net/DTD/sodipodi-0.dtd"
   xmlns:xlink="http://www.w3.org/1999/xlink"
   xmlns="http://www.w3.org/2000/svg"
   xmlns:svg="http://www.w3.org/2000/svg"><sodipodi:namedview
     id="namedview7"
     pagecolor="#505050"
     bordercolor="#ffffff"
     borderopacity="1"
     inkscape:showpageshadow="0"
     inkscape:pageopacity="0"
     inkscape:pagecheckerboard="1"
     inkscape:deskcolor="#505050"
     inkscape:document-units="mm"
     showgrid="false"
     showborder="false"
     inkscape:zoom="0.16173406"
     inkscape:cx="-1817.7989"
     inkscape:cy="343.15592"
     inkscape:window-width="1965"
     inkscape:window-height="1360"
     inkscape:window-x="0"
     inkscape:window-y="0"
     inkscape:window-maximized="0"
     inkscape:current-layer="layer1" /><defs
     id="defs2"><inkscape:path-effect
       effect="bspline"
       id="path-effect1646"
       is_visible="true"
       lpeversion="1"
       weight="33.333333"
       steps="2"
       helper_size="0"
       apply_no_weight="true"
       apply_with_weight="true"
       only_selected="false" /><inkscape:path-effect
       effect="bspline"
       id="path-effect304"
       is_visible="true"
       lpeversion="1"
       weight="33.333333"
       steps="2"
       helper_size="0"
       apply_no_weight="true"
       apply_with_weight="true"
       only_selected="false" /><clipPath
       clipPathUnits="userSpaceOnUse"
       id="clipPath306"><path
         style="fill:#99ff55;fill-opacity:0.570652;stroke:#ff00d0;stroke-width:0.264583;stroke-dasharray:0.264583, 0.264583"
         d="m -471.57543,-133.41374 c 63.62228,-51.66907 185.46844,-111.82097 265.6714,-112.59138 80.20296,-0.77042 118.761096,57.83795 150.379577,78.65942 31.618482,20.82147 56.29568941,3.85589 79.816922,11.95376 23.521232,8.09788 45.884954,41.25788 78.660331,11.56649 32.77537,-29.69138 75.96048,-122.23092 108.3503,-171.20087 32.38982,-48.96994 53.98238,-54.36809 69.40597,-28.53287 15.42359,25.83523 24.67754,82.90126 33.54621,122.23158 8.86867,39.33031 17.35146,60.92287 18.89369,95.24073 1.54223,34.317847 -3.85591,81.358778 5.01287,88.684558 8.86878,7.32578 32.00366,-25.063057 38.94421,-66.321468 6.94056,-41.25841 -2.31339,-91.38398 18.12334,-131.87132 20.43674,-40.48735 70.56231,-71.33385 100.6383,-106.03715 30.07599,-34.7033 40.10111,-73.26142 72.10568,-96.01136 32.00457,-22.74994 85.98597,-29.6904 119.53237,-27.37661 33.5464,2.31379 46.65617,13.88123 43.95669,54.75435 -2.69947,40.87311 -21.20738,111.04892 -23.13511,176.59974 -1.92774,65.55082 12.72436,126.47269 12.72415,175.82838 -2.1e-4,49.355695 -14.65231,87.142673 -58.22452,124.930681 C 619.25474,104.88093 546.76544,142.66791 485.0707,170.0449 c -61.69475,27.377 -112.59148,44.34258 -136.11238,57.06729 -23.52091,12.72471 -19.66509,21.20751 -49.35612,43.57185 -29.69102,22.36435 -92.92636,58.60899 -137.65485,74.41815 -44.72849,15.80916 -70.948026,11.18219 -99.482055,20.05092 -28.534029,8.86873 -59.3805418,31.23244 -106.808616,59.76637 -47.428074,28.53393 -111.434579,63.23626 -162.332599,69.79118 -50.89803,6.55491 -88.68502,-15.03765 -88.29918,-41.64371 0.38583,-26.60606 38.94397,-58.22374 40.10052,-85.2151 1.15654,-26.99135 -35.08811,-49.35506 -41.25738,-64.77883 -6.16926,-15.42377 17.73679,-23.90657 24.29168,-42.02935 6.55489,-18.12279 -4.24139,-45.88463 11.56826,-60.1516 15.80965,-14.26697 58.2236,-15.03813 29.68903,-24.29242 -28.53456,-9.25429 -128.01457,-26.99103 -192.40829,-57.06728 C -487.385,89.456124 -516.68919,47.042173 -528.64251,4.2413119 -540.59584,-38.559549 -535.1977,-81.744662 -471.57543,-133.41374 Z"
         id="path308"
         inkscape:path-effect="#path-effect304"
         inkscape:original-d="m -529.79942,-124.93086 c 121.84642,-60.15164 243.69258,-120.30354 365.53847,-180.45569 38.55994,58.61097 77.118082,117.21934 115.676724,175.82862 24.678461,-16.966 49.35566877,-33.93158 74.033106,-50.89776 22.364879,33.16159 44.7286,66.32159 67.092504,99.481982 43.187106,-92.542972 86.372216,-185.082512 129.557926,-277.624152 21.59369,-5.39808 43.18625,-10.79622 64.77898,-16.19475 9.25459,57.06861 18.50853,114.13465 27.76241,171.20157 8.48339,21.59369 16.9662,43.18624 25.44887,64.77897 -5.39808,47.043071 -10.79622,94.084001 -16.19472,141.1256045 23.13606,-32.3898675 46.27094,-64.7787045 69.40603,-97.1684505 -9.25407,-50.127324 -18.50801,-100.252894 -27.76242,-150.379744 50.12786,-30.84749 100.25343,-61.69399 150.37975,-92.54139 10.02578,-38.55943 20.05089,-77.11755 30.07596,-115.67674 53.98381,-6.94047 107.96521,-13.88094 161.94741,-20.8218 13.11055,11.56816 26.22031,23.13561 39.33007,34.70301 -18.50837,70.1789 -37.01627,140.35471 -55.52482,210.53166 14.65294,60.92456 29.30504,121.84642 43.95716,182.769229 C 721.05158,-8.4819395 706.39948,29.305036 691.74683,67.092502 619.25491,104.88125 546.76561,142.66823 474.27459,180.45569 423.37606,197.42222 372.47933,214.3878 321.5813,231.35345 c 3.85623,8.4834 7.71205,16.96619 11.56767,25.44888 -63.23762,36.24636 -126.47295,72.49102 -189.70983,108.73613 -26.22032,-4.6269 -52.439851,-9.25388 -78.660173,-13.8812 -30.84748,22.36488 -61.6939896,44.7286 -92.541381,67.09248 -64.008802,34.704 -128.015316,69.40632 -192.023366,104.10907 -37.78822,-21.59314 -75.57521,-43.18571 -113.36319,-64.77896 38.55993,-31.61869 77.11808,-63.23635 115.67672,-94.85493 -36.24583,-22.36435 -72.49047,-44.72808 -108.73611,-67.09248 23.90724,-8.48289 47.8133,-16.96567 71.71956,-25.4489 -10.79645,-27.76271 -21.59272,-55.52456 -32.38949,-83.28724 42.41592,-0.77093 84.82987,-1.54209 127.24441,-2.31354 -99.48371,-17.73719 -198.96372,-35.47393 -298.44597,-53.21129 -29.30509,-42.415387 -58.60928,-84.829337 -87.91432,-127.2444009 5.39864,-43.1865791 10.79678,-86.3716931 16.19475,-129.5579291 z" /></clipPath></defs><g
     inkscape:label="Layer 1"
     inkscape:groupmode="layer"
     id="layer1"><image
       width="1422.4"
       height="1066.8"
       preserveAspectRatio="none"
       style="image-rendering:optimizeQuality"
       xlink:href="../../../../images/image190.jpg"
       id="image190"
       x="-573.54468"
       y="-477.87518"
       clip-path="url(#clipPath306)"
       transform="translate(-539.27469,166.86343)"
       inkscape:export-filename="S-pertusa.svg"
       inkscape:export-xdpi="96"
       inkscape:export-ydpi="96" /></g></svg>
